<?xml version="1.0" standalone="no"?>
<!DOCTYPE svg PUBLIC "-//W3C//DTD SVG 20010904//EN"
 "http://www.w3.org/TR/2001/REC-SVG-20010904/DTD/svg10.dtd">
<svg version="1.0" xmlns="http://www.w3.org/2000/svg"
 width="1127.000000pt" height="1280.000000pt" viewBox="0 0 1127.000000 1280.000000"
 preserveAspectRatio="xMidYMid meet">
<metadata>
Created by potrace 1.15, written by Peter Selinger 2001-2017
</metadata>
<g transform="translate(0.000000,1280.000000) scale(0.100000,-0.100000)"
fill="#000000" stroke="none">
<path d="M5524 12457 c-58 -97 -148 -246 -614 -1017 -238 -393 -656 -1084
-883 -1460 -88 -146 -189 -312 -224 -370 -52 -84 -57 -96 -26 -60 331 395 763
601 1395 665 148 15 588 21 587 8 0 -11 -139 -123 -241 -195 -48 -34 -86 -63
-84 -65 1 -1 40 13 87 33 132 56 303 101 455 120 121 15 155 16 263 5 290 -29
600 -143 827 -306 83 -60 253 -223 333 -320 43 -52 31 -30 -99 190 -204 343
-638 1076 -1005 1695 -256 432 -496 837 -618 1043 -45 75 -84 137 -87 137 -3
0 -32 -47 -66 -103z"/>
<path d="M5250 10083 c-115 -7 -289 -35 -416 -68 -357 -92 -650 -258 -925
-525 l-114 -111 95 50 c52 27 145 70 205 95 110 44 344 120 352 113 2 -2 -10
-33 -26 -68 -43 -91 -78 -233 -96 -389 -24 -211 -24 -210 41 -96 255 453 593
766 1039 961 l100 44 -100 -1 c-55 -1 -125 -3 -155 -5z"/>
<path d="M5824 9969 c-435 -32 -859 -318 -1203 -812 -85 -123 -172 -268 -230
-386 l-49 -100 31 -6 c36 -6 318 -35 342 -35 9 0 30 30 52 75 20 41 74 122
121 180 l84 106 45 -60 44 -60 -91 -125 c-49 -70 -90 -128 -90 -130 0 -15 192
-31 365 -31 163 1 221 5 315 23 265 51 373 85 619 194 135 60 177 66 342 49
203 -21 361 -61 535 -135 266 -112 573 -337 758 -555 38 -44 71 -80 73 -78 4
4 -32 134 -63 227 -109 326 -363 603 -695 759 -182 85 -424 149 -647 171 -139
14 -448 13 -475 -1 -12 -7 -71 -59 -130 -117 -59 -57 -111 -102 -114 -98 -3 3
0 33 7 66 15 69 9 165 -13 230 -9 24 -15 45 -14 46 1 1 49 -2 106 -6 89 -7
120 -4 220 16 285 58 564 54 846 -10 199 -46 422 -142 548 -234 31 -23 57 -40
57 -37 0 15 -53 107 -98 170 -71 100 -151 190 -240 268 -272 241 -701 408
-1112 432 -52 3 -106 7 -120 9 -14 1 -70 -1 -126 -5z m-212 -646 c41 -48 52
-187 19 -259 -59 -130 -189 -200 -326 -174 -101 19 -173 77 -216 172 -13 30
-14 30 83 101 38 29 38 29 38 6 0 -34 39 -108 66 -126 36 -23 95 -33 134 -23
69 18 130 113 115 179 -3 17 -20 49 -36 71 -17 23 -29 43 -27 44 2 2 19 7 38
13 54 17 95 15 112 -4z"/>
<path d="M4016 9305 c-379 -223 -611 -409 -765 -613 -122 -161 -156 -275 -156
-522 0 -284 53 -419 221 -566 34 -30 72 -70 85 -89 28 -40 55 -48 45 -12 -49
180 -56 316 -18 413 53 141 146 187 472 238 378 59 734 71 957 31 51 -9 103
-15 115 -13 19 3 15 9 -37 50 -154 122 -375 204 -710 264 -55 9 -103 20 -107
24 -4 3 -3 33 2 65 23 141 41 324 50 520 5 116 14 232 19 260 5 27 8 51 7 52
-1 1 -82 -45 -180 -102z"/>
<path d="M6290 8604 c-242 -79 -382 -113 -680 -163 -75 -12 -273 -30 -375 -34
l-70 -2 90 -17 c50 -10 182 -43 295 -74 433 -118 604 -179 843 -301 431 -219
645 -371 948 -673 261 -260 410 -465 556 -762 38 -76 70 -138 73 -138 8 0 30
146 41 278 15 166 -7 396 -57 601 -50 205 -169 450 -310 636 -252 333 -626
567 -1056 660 -65 14 -135 25 -155 24 -21 0 -85 -16 -143 -35z"/>
<path d="M7824 8618 c2 -7 35 -103 71 -213 65 -194 126 -423 140 -521 l8 -49
-24 21 c-13 11 -58 51 -99 88 -41 38 -111 96 -155 131 -165 127 -166 128 -81
30 400 -463 547 -1047 421 -1670 -24 -121 -64 -268 -88 -327 l-13 -32 -76 144
c-157 302 -374 649 -470 753 l-39 42 31 -55 c123 -216 220 -454 254 -622 23
-111 21 -295 -4 -392 -22 -87 -86 -216 -134 -272 l-33 -38 -17 59 c-10 33 -31
96 -46 140 l-29 80 0 -56 c-1 -90 -20 -254 -42 -372 -35 -187 -107 -373 -201
-520 -50 -77 -180 -246 -190 -247 -4 0 -7 120 -6 268 2 166 -1 276 -8 290 -9
21 -11 19 -28 -35 -24 -77 -94 -217 -153 -306 -64 -96 -216 -247 -331 -327
-51 -36 -163 -105 -250 -154 -86 -49 -193 -110 -237 -135 l-80 -46 1108 -3
c610 -1 1603 -1 2208 0 l1099 3 -468 820 c-561 982 -1273 2231 -1477 2590
-312 548 -601 1028 -561 933z"/>
<path d="M5095 8207 c378 -331 638 -695 764 -1065 56 -164 90 -349 91 -492 l1
-75 20 25 c40 48 74 115 110 221 l37 108 19 -22 c64 -71 171 -274 222 -421 92
-261 141 -574 141 -892 0 -374 -86 -663 -295 -984 -25 -40 -44 -74 -42 -76 9
-9 233 171 331 266 249 241 406 509 481 818 21 86 23 84 65 -46 38 -118 60
-261 61 -404 l1 -113 49 100 c53 110 117 279 149 395 45 165 63 307 64 497 1
198 5 210 49 151 48 -64 98 -181 118 -277 l12 -56 14 40 c41 116 35 375 -13
554 -68 258 -242 532 -524 824 -335 347 -708 580 -1235 772 -153 55 -458 144
-635 185 l-125 28 70 -61z"/>
<path d="M4561 8031 c8 -10 39 -51 70 -92 93 -124 162 -249 218 -394 159 -417
140 -861 -55 -1317 -19 -45 -33 -85 -32 -90 4 -12 178 92 255 154 74 58 168
164 210 235 36 62 39 44 18 -95 -73 -483 -217 -845 -468 -1177 -80 -105 -269
-294 -381 -381 -329 -253 -785 -434 -1286 -510 -124 -19 -125 -18 15 -48 197
-42 674 -54 925 -22 429 54 737 176 1003 396 179 148 313 328 460 618 49 94
89 172 91 172 6 0 -15 -140 -35 -239 -76 -377 -323 -842 -596 -1124 -80 -83
-74 -83 102 3 274 133 584 376 780 610 190 228 291 438 340 710 26 143 32 500
11 657 -14 106 -66 339 -82 364 -3 5 -27 -17 -53 -49 -66 -77 -141 -149 -230
-216 -93 -72 -106 -72 -98 -6 9 75 -10 358 -33 495 -118 697 -457 1149 -990
1319 -58 18 -120 36 -139 40 -31 6 -33 5 -20 -13z"/>
<path d="M4015 7903 c-22 -123 -82 -388 -116 -508 -236 -830 -646 -1349 -1439
-1823 -132 -78 -215 -123 -480 -255 -264 -132 -292 -145 -565 -267 l-180 -80
65 0 c89 0 355 26 525 51 929 136 1738 532 2211 1082 197 229 333 481 389 722
92 401 -36 797 -345 1065 l-59 51 -6 -38z"/>
<path d="M4607 5932 c-23 -41 -168 -233 -244 -324 -35 -42 -105 -113 -156
-156 -110 -94 -286 -227 -292 -220 -3 2 0 20 6 39 17 58 77 302 84 343 l6 39
-24 -19 c-363 -277 -619 -440 -922 -585 -444 -211 -871 -342 -1715 -524 -168
-36 -321 -69 -340 -74 -64 -15 233 -23 840 -24 600 -1 762 7 1051 47 559 79
966 272 1319 625 280 280 390 488 415 779 7 87 0 101 -28 54z"/>
<path d="M1970 3676 c0 -2 54 -163 121 -357 119 -350 211 -620 327 -959 l59
-175 157 -3 c90 -1 156 1 156 7 0 5 -68 202 -151 437 -83 236 -186 530 -229
654 -43 124 -93 264 -110 313 l-32 87 -149 0 c-82 0 -149 -2 -149 -4z"/>
<path d="M4215 3668 c-3 -7 -4 -344 -3 -748 l3 -735 148 -3 147 -3 0 751 0
750 -145 0 c-107 0 -147 -3 -150 -12z"/>
<path d="M4660 3565 l0 -115 300 0 300 0 0 115 0 115 -300 0 -300 0 0 -115z"/>
<path d="M5490 2930 l0 -750 150 0 150 0 2 516 3 516 258 -396 c142 -218 261
-396 263 -396 2 0 4 100 4 223 l0 224 -264 404 -263 404 -152 3 -151 3 0 -751z"/>
<path d="M6470 2930 l0 -750 150 0 150 0 0 750 0 750 -150 0 -150 0 0 -750z"/>
<path d="M7316 3665 c-136 -38 -251 -129 -304 -242 -24 -52 -27 -69 -27 -173
0 -99 3 -122 24 -167 26 -58 106 -140 168 -171 31 -16 232 -82 249 -82 2 0 4
57 4 128 l0 127 -41 20 c-112 53 -141 209 -53 291 18 18 47 35 64 39 l30 7 0
119 0 119 -32 -1 c-18 0 -55 -7 -82 -14z"/>
<path d="M7580 3558 l0 -123 35 -24 c34 -23 75 -91 75 -124 0 -15 17 -17 165
-17 125 0 165 3 165 13 -1 36 -34 147 -57 190 -49 89 -149 159 -276 193 -29 8
-64 14 -79 14 l-28 0 0 -122z"/>
<path d="M8270 2930 l0 -750 150 0 150 0 0 750 0 750 -150 0 -150 0 0 -750z"/>
<path d="M9155 3661 c-168 -48 -279 -149 -321 -291 -24 -82 -16 -220 17 -290
58 -122 176 -195 392 -244 l27 -6 0 123 0 123 -52 34 c-64 42 -91 91 -91 165
0 74 25 114 90 145 l52 25 1 118 0 117 -27 -1 c-16 0 -55 -8 -88 -18z"/>
<path d="M9420 3562 l0 -121 50 -50 c38 -38 51 -59 56 -90 l7 -41 164 0 165 0
-7 48 c-18 123 -75 221 -165 283 -58 40 -153 76 -226 86 l-44 6 0 -121z"/>
<path d="M2579 3563 c22 -60 98 -270 171 -468 72 -198 174 -479 227 -625 53
-146 101 -271 106 -277 11 -15 277 -19 277 -4 0 8 -227 677 -400 1176 -28 83
-63 185 -77 228 l-26 77 -158 0 -158 0 38 -107z"/>
<path d="M3660 3638 c-6 -18 -45 -130 -85 -248 -40 -118 -109 -319 -153 -445
l-79 -231 53 -154 c30 -85 61 -177 70 -203 9 -27 20 -45 24 -40 5 4 22 46 38
93 17 47 87 240 157 430 137 372 269 732 291 793 l13 37 -158 0 -159 0 -12
-32z"/>
<path d="M1802 3357 c-30 -83 -80 -226 -112 -317 -32 -91 -89 -250 -125 -355
-37 -104 -91 -259 -121 -343 -30 -84 -54 -155 -54 -157 0 -3 71 -5 158 -5
l157 0 46 138 46 137 212 3 212 2 -6 23 c-4 12 -21 64 -38 114 l-32 93 -132 0
c-73 0 -133 2 -133 4 0 2 30 90 66 196 l66 192 -74 214 c-40 118 -75 214 -78
214 -3 0 -29 -69 -58 -153z"/>
<path d="M4666 3053 c-3 -4 -6 -55 -6 -115 l0 -108 265 0 265 0 0 115 0 115
-259 0 c-142 -1 -262 -4 -265 -7z"/>
<path d="M7586 3032 c-3 -3 -6 -59 -6 -124 l0 -119 32 -17 c99 -53 140 -129
118 -213 -17 -62 -44 -96 -101 -124 l-49 -25 0 -115 c0 -132 -7 -125 99 -100
140 33 262 128 322 251 32 65 34 74 34 179 0 91 -4 118 -22 157 -34 75 -93
130 -180 171 -85 39 -238 88 -247 79z"/>
<path d="M9420 2907 l0 -123 34 -16 c62 -30 104 -75 114 -124 20 -92 -22 -177
-103 -210 l-45 -19 0 -119 0 -119 51 7 c110 15 237 81 305 160 20 22 51 70 68
106 29 61 31 72 31 175 0 99 -3 115 -28 167 -47 97 -123 150 -296 208 -139 47
-131 52 -131 -93z"/>
<path d="M6980 2567 c0 -106 70 -228 167 -293 61 -41 161 -78 236 -89 l47 -6
0 120 0 120 -42 23 c-44 23 -81 80 -93 141 l-5 27 -155 0 -155 0 0 -43z"/>
<path d="M8820 2563 c0 -49 24 -125 55 -178 57 -98 198 -180 343 -200 l52 -7
0 120 0 121 -42 23 c-44 24 -77 69 -87 121 l-7 32 -157 3 -157 3 0 -38z"/>
<path d="M4662 2298 l3 -113 295 0 295 0 3 113 3 112 -301 0 -301 0 3 -112z"/>
<path d="M4888 1831 c-26 -4 -50 -10 -54 -14 -4 -3 11 -58 32 -122 l39 -115
74 0 c131 0 193 -47 234 -177 20 -61 22 -90 22 -278 0 -198 -2 -214 -25 -281
l-25 -71 45 -131 c25 -72 48 -133 51 -137 12 -11 114 111 142 169 56 114 87
277 87 456 0 301 -82 522 -231 626 -90 62 -262 95 -391 75z"/>
<path d="M7422 1830 c-29 -4 -55 -10 -58 -12 -2 -3 15 -58 38 -124 l41 -119
65 3 c119 7 204 -51 237 -160 50 -165 43 -504 -12 -612 -14 -27 -12 -37 33
-167 27 -77 51 -139 55 -139 13 0 83 76 115 126 40 63 79 173 96 275 16 97 16
353 -1 454 -40 243 -149 394 -328 454 -68 22 -205 33 -281 21z"/>
<path d="M3605 1825 c-5 -2 -22 -6 -36 -9 l-26 -6 37 -106 37 -106 74 -2 c58
-1 82 -6 111 -24 51 -32 78 -91 78 -174 0 -76 -16 -127 -66 -210 l-36 -59 42
-122 c23 -67 44 -124 46 -126 10 -11 129 120 176 193 70 109 96 170 109 258
37 232 -92 431 -312 483 -56 13 -206 20 -234 10z"/>
<path d="M6108 1823 c-16 -2 -28 -7 -28 -11 0 -4 17 -54 37 -112 l37 -106 57
4 c73 5 120 -11 158 -53 73 -84 64 -223 -23 -359 l-33 -51 46 -134 45 -134 65
69 c107 115 200 274 216 373 20 122 -1 245 -59 335 -83 129 -206 187 -390 185
-56 -1 -113 -4 -128 -6z"/>
<path d="M4632 1710 c-69 -68 -126 -185 -153 -315 -18 -87 -20 -125 -16 -300
3 -164 8 -215 26 -280 66 -248 205 -374 432 -392 78 -6 195 2 217 16 9 5 2 37
-27 122 l-38 114 -56 -3 c-77 -5 -155 20 -199 62 -48 47 -76 132 -90 279 -18
172 10 407 54 463 9 13 -78 284 -92 284 -4 0 -30 -23 -58 -50z"/>
<path d="M7169 1708 c-130 -128 -190 -352 -176 -658 11 -234 67 -400 172 -506
98 -99 262 -147 430 -125 49 7 90 13 92 15 2 1 -15 57 -38 123 l-40 121 -62
-5 c-34 -3 -80 0 -103 6 -54 14 -118 71 -139 123 -60 149 -59 509 2 648 l18
43 -43 126 c-23 69 -47 130 -51 134 -5 5 -33 -15 -62 -45z"/>
<path d="M3355 1709 c-24 -22 -56 -61 -70 -85 -28 -48 -65 -178 -65 -231 l0
-34 132 3 131 3 12 60 c12 59 12 62 -33 192 -25 73 -49 133 -54 133 -5 0 -28
-18 -53 -41z"/>
<path d="M5898 1720 c-75 -62 -138 -203 -138 -307 l0 -43 129 0 130 0 12 58
c11 56 11 60 -32 189 -24 73 -49 133 -54 133 -6 0 -27 -13 -47 -30z"/>
<path d="M3634 979 c-16 -18 -116 -108 -222 -201 l-193 -170 3 -96 3 -97 327
-3 327 -2 -34 97 c-18 54 -36 106 -40 116 -6 14 -21 17 -94 17 l-86 1 66 62
67 62 -42 117 c-22 64 -44 119 -47 122 -3 3 -19 -8 -35 -25z"/>
<path d="M6149 960 c-30 -28 -129 -116 -221 -197 l-168 -146 0 -103 0 -104
325 0 c179 0 325 3 325 7 0 5 -16 56 -36 115 l-36 108 -91 0 -91 0 69 63 69
63 -38 110 c-21 60 -42 115 -45 122 -5 9 -23 -2 -62 -38z"/>
<path d="M3951 633 c0 -5 17 -55 37 -113 l37 -105 83 -3 82 -3 0 116 0 115
-120 0 c-66 0 -120 -3 -119 -7z"/>
<path d="M6504 578 c13 -35 31 -87 40 -115 l18 -53 84 0 84 0 0 115 0 115
-124 0 -124 0 22 -62z"/>
</g>
</svg>
